<svg width="406" height="320" viewBox="0 0 406 320" fill="none" xmlns="http://www.w3.org/2000/svg">
<path fill-rule="evenodd" clip-rule="evenodd" d="M64.1168 90.1763C64.1269 90.1763 64.1371 90.1776 64.1472 90.1782C64.5171 90.1801 64.8781 90.2218 65.2264 90.2973C65.6146 90.0943 66.0308 89.9393 66.4679 89.8388C66.8428 89.7524 67.2323 89.7024 67.6333 89.7024C67.8331 89.7024 68.0291 89.7165 68.2233 89.7389C68.8723 89.8138 69.4851 90.0059 70.0408 90.2973C70.0491 90.296 70.0573 90.296 70.0649 90.2941C70.2223 90.2602 70.3809 90.2339 70.542 90.2147C70.7418 90.191 70.9442 90.1763 71.1504 90.1763C71.3052 90.1763 71.453 90.2 71.604 90.2141C71.84 90.2346 72.0715 90.2723 72.298 90.3229C72.8969 89.7107 73.275 88.8789 73.275 87.9491V86.6043C73.275 84.7236 71.7645 83.1989 69.9019 83.1989C69.7782 83.1989 69.6608 83.2232 69.5403 83.236C69.4166 83.2501 69.291 83.2578 69.1711 83.284C68.7079 83.0426 68.1903 82.894 67.6333 82.894C67.3763 82.894 67.1289 82.9286 66.8879 82.9837C66.6068 83.0477 66.3454 83.154 66.0961 83.284C65.8601 83.2315 65.6171 83.1989 65.3653 83.1989C64.6903 83.1989 64.0648 83.4044 63.5376 83.7489C62.6095 84.3554 61.9922 85.4049 61.9922 86.6043V87.9491C61.9922 88.8751 62.3627 89.7095 62.9577 90.3216C63.332 90.2352 63.7165 90.1763 64.1168 90.1763Z" fill="#CE643A"/>
<path fill-rule="evenodd" clip-rule="evenodd" d="M69.5411 83.2363C69.4174 83.2498 69.2918 83.2581 69.1719 83.2844C70.2573 83.8504 71.0078 84.9807 71.0078 86.2986V87.9494C71.0078 88.8626 70.6475 89.6861 70.0664 90.2938C70.2231 90.2605 70.3817 90.2342 70.5434 90.2144C70.7433 90.1913 70.945 90.1766 71.1512 90.1766C71.306 90.1766 71.4538 90.2003 71.6048 90.2138C71.8103 89.8199 71.9283 89.3723 71.9283 88.8959V86.0341C71.9283 84.6125 70.8911 83.4457 69.5411 83.2363Z" fill="#AD330D"/>
<path fill-rule="evenodd" clip-rule="evenodd" d="M66.8879 82.9834C66.6068 83.0481 66.3454 83.1544 66.0955 83.2844C65.39 83.6526 64.8235 84.2526 64.5177 84.998C64.2944 84.5049 63.9544 84.0816 63.5376 83.7486C62.6095 84.3557 61.9922 85.4046 61.9922 86.604V87.9494C61.9922 88.8748 62.3627 89.7092 62.9577 90.3214C63.332 90.2349 63.7165 90.176 64.1168 90.176C64.1269 90.176 64.1371 90.1773 64.1472 90.1779C64.3268 89.9384 64.4765 89.6752 64.5882 89.3903C64.7468 89.7316 64.9701 90.0313 65.2264 90.2977C65.6146 90.094 66.0301 89.9391 66.4679 89.8385C66.8428 89.7521 67.2323 89.7021 67.6333 89.7021C67.8331 89.7021 68.0291 89.7168 68.2226 89.7393C68.2252 89.697 68.2379 89.6592 68.2379 89.6169V84.9365C68.2379 84.0381 67.6745 83.2799 66.8879 82.9834Z" fill="#AD330D"/>
<path fill-rule="evenodd" clip-rule="evenodd" d="M74.7584 91.1896H74.5763C74.4646 91.1896 74.3549 91.1992 74.2445 91.2062C73.6742 90.7823 73.0131 90.482 72.2988 90.3225C72.0723 90.2726 71.8407 90.2348 71.6047 90.2143C71.4538 90.2002 71.3053 90.1765 71.1505 90.1765C70.945 90.1765 70.7426 90.1912 70.5428 90.2149C70.3816 90.2341 70.2224 90.2604 70.0657 90.2943C70.0574 90.2956 70.0492 90.2963 70.041 90.2975C69.4859 90.0062 68.8724 89.8141 68.2234 89.7391C68.0299 89.7167 67.8339 89.7026 67.634 89.7026C67.2331 89.7026 66.8436 89.7526 66.4686 89.839C66.0309 89.9396 65.6147 90.0945 65.2271 90.2975C64.8782 90.222 64.5179 90.1803 64.1474 90.1784C64.1372 90.1778 64.1277 90.1765 64.1176 90.1765C63.7173 90.1765 63.3322 90.2354 62.9585 90.3219H62.9579C62.3609 90.4602 61.7976 90.6901 61.297 91.0147C61.2031 91.0749 61.113 91.1403 61.0236 91.2062C60.9132 91.1992 60.8035 91.1896 60.6918 91.1896H60.5097C59.4179 91.1896 58.4086 91.5354 57.5763 92.1213C56.2447 93.0582 55.3711 94.6136 55.3711 96.3765V100.611C55.3711 101.448 55.5722 102.237 55.9218 102.936C58.4587 102.229 62.9522 102.229 68.0762 102.229H68.571C69.9629 102.229 71.304 102.231 72.5678 102.249C73.1533 102.258 73.723 102.27 74.2718 102.286C74.8865 102.304 75.4759 102.33 76.0386 102.363C76.6609 102.4 77.249 102.447 77.7978 102.507C78.3941 102.571 78.9409 102.651 79.437 102.751C79.7308 102.098 79.897 101.374 79.897 100.611V96.3765C79.897 93.5115 77.596 91.1896 74.7584 91.1896Z" fill="#0097B8"/>
<path fill-rule="evenodd" clip-rule="evenodd" d="M74.2539 91.2139C75.5411 92.1751 76.3798 93.7139 76.3798 95.455V100.518C76.3798 101.17 76.2516 101.788 76.0378 102.363C76.6602 102.4 77.2483 102.447 77.797 102.507C77.7989 102.452 77.8065 102.4 77.8065 102.345V95.2091C77.8065 93.1356 76.251 91.4303 74.2539 91.2139Z" fill="#00547A"/>
<path fill-rule="evenodd" clip-rule="evenodd" d="M70.5428 90.2144C70.3728 90.2342 70.206 90.2617 70.041 90.2976C71.7171 91.1775 72.8635 92.943 72.8635 94.9806V100.518C72.8635 101.126 72.7556 101.706 72.5678 102.249C73.1534 102.258 73.7231 102.269 74.2718 102.286C74.2782 102.186 74.2909 102.087 74.2909 101.986V94.5708C74.2909 92.3493 72.6605 90.5179 70.5428 90.2144Z" fill="#00547A"/>
<path fill-rule="evenodd" clip-rule="evenodd" d="M66.468 89.8389C66.0309 89.9394 65.6147 90.0944 65.2265 90.298C64.1417 90.8673 63.2789 91.8067 62.8056 92.9536C62.4586 92.1922 61.9397 91.5288 61.2964 91.0146C61.2031 91.0754 61.1124 91.1401 61.023 91.2067C60.3181 91.7299 59.7497 92.4266 59.3773 93.2354C58.8628 92.7487 58.2519 92.367 57.5756 92.1211C56.244 93.058 55.3711 94.6134 55.3711 96.3764V100.61C55.3711 101.448 55.5716 102.236 55.9218 102.936C58.4581 102.23 62.9515 102.229 68.0756 102.229H68.5704V92.8691C68.5704 91.4744 67.693 90.2954 66.468 89.8389Z" fill="#00547A"/>
<path fill-rule="evenodd" clip-rule="evenodd" d="M82.413 104.89C82.4136 104.872 82.4174 104.855 82.4174 104.837C82.4174 103.752 81.3028 103.12 79.4357 102.75C78.9396 102.652 78.3928 102.571 77.7964 102.506C77.2477 102.447 76.6596 102.399 76.0372 102.363C75.4745 102.33 74.8852 102.305 74.2704 102.286C73.7217 102.269 73.152 102.258 72.5664 102.249C71.3027 102.232 69.9622 102.229 68.5697 102.229H68.0749C62.9508 102.229 58.4574 102.23 55.9204 102.935C54.5362 103.321 53.7324 103.916 53.7324 104.837C53.7324 104.855 53.7355 104.872 53.7362 104.89H53.7305L53.7324 123.264C53.733 124.019 54.3382 124.63 55.0855 124.63H81.0883C81.835 124.63 82.4409 124.019 82.4409 123.264L82.4428 104.89H82.413Z" fill="#DFF0FF"/>
<path fill-rule="evenodd" clip-rule="evenodd" d="M82.4098 122.685C82.2772 123.299 81.7374 123.759 81.0896 123.759H67.7584C66.0645 123.392 64.8274 121.895 64.8186 120.123L64.7462 105.713C64.7386 104.185 65.807 102.866 67.2927 102.57L69.0012 102.229H68.0768C60.1551 102.229 53.7343 102.229 53.7343 104.837C53.7343 104.856 53.7419 104.872 53.7432 104.89H53.7324L53.7337 122.685V123.264C53.7343 124.019 54.3395 124.63 55.0869 124.63H81.0896C81.837 124.63 82.4422 124.019 82.4428 123.264V122.685H82.4098Z" fill="#B8DDFF"/>
<path fill-rule="evenodd" clip-rule="evenodd" d="M173.891 52.7712L154.712 112.812C152.202 120.67 158.08 128.694 166.347 128.694H217.426C217.929 128.694 218.338 128.286 218.338 127.784V126.517C218.338 126.014 217.929 125.606 217.426 125.606H198.007C190.212 125.606 184.412 118.419 186.077 110.822L198.623 53.5722C198.834 52.6059 198.097 51.6914 197.105 51.6914H175.371C174.695 51.6914 174.097 52.1284 173.891 52.7712Z" fill="#EFF7FF"/>
<path fill-rule="evenodd" clip-rule="evenodd" d="M186.539 108.71L198.622 53.5722C198.834 52.6059 198.096 51.6914 197.104 51.6914H175.371C174.694 51.6914 174.096 52.1278 173.891 52.7705L156.021 108.71H186.539Z" fill="#B8DDFF"/>
<path fill-rule="evenodd" clip-rule="evenodd" d="M173.913 52.7384L154.637 112.685C152.093 120.599 158.01 128.694 166.341 128.694H217.426C217.93 128.694 218.339 128.287 218.339 127.784V126.517C218.339 126.014 217.93 125.607 217.426 125.607H166.175C159.818 125.607 155.313 119.416 157.282 113.386L176.786 53.665C177.104 52.6916 176.376 51.6919 175.35 51.6919C174.694 51.6919 174.113 52.1148 173.913 52.7384Z" fill="#3CA1FF"/>
<path fill-rule="evenodd" clip-rule="evenodd" d="M260.059 0.510742H258.071H122.278H120.29C117.362 0.510742 114.988 2.87858 114.988 5.80008V95.4054C114.988 98.327 117.362 100.695 120.29 100.695H122.278H258.071H260.059C262.987 100.695 265.361 98.327 265.361 95.4054V5.80008C265.361 2.87858 262.987 0.510742 260.059 0.510742Z" fill="#DFF0FF"/>
<path fill-rule="evenodd" clip-rule="evenodd" d="M265.359 87.392H116.975V5.80008C116.975 2.87858 119.349 0.510742 122.276 0.510742H260.057C262.986 0.510742 265.359 2.87858 265.359 5.80008V87.392Z" fill="#1C417D"/>
<path fill-rule="evenodd" clip-rule="evenodd" d="M259.142 82.6263H123.194C122.835 82.6263 122.543 82.3361 122.543 81.9772V7.27284C122.543 6.91462 122.835 6.62305 123.194 6.62305H259.142C259.501 6.62305 259.793 6.91462 259.793 7.27284V81.9772C259.793 82.3361 259.501 82.6263 259.142 82.6263Z" fill="#D5F8FF"/>
<path fill-rule="evenodd" clip-rule="evenodd" d="M122.278 0.510742H120.29C117.362 0.510742 114.988 2.87858 114.988 5.80008V95.4054C114.988 98.327 117.362 100.695 120.29 100.695H122.278C119.35 100.695 116.976 98.327 116.976 95.4054V5.80008C116.976 2.87858 119.35 0.510742 122.278 0.510742Z" fill="#3CA1FF"/>
<path fill-rule="evenodd" clip-rule="evenodd" d="M192.037 2.65332C191.409 2.65332 190.9 3.16149 190.9 3.78821C190.9 4.4143 191.409 4.92183 192.037 4.92183C192.665 4.92183 193.174 4.4143 193.174 3.78821C193.174 3.16149 192.665 2.65332 192.037 2.65332Z" fill="#3CA1FF"/>
<path fill-rule="evenodd" clip-rule="evenodd" d="M336.967 58.2744C336.967 56.8066 335.772 55.6167 334.298 55.6167H327.353C325.879 55.6167 324.684 56.8066 324.684 58.2744V64.0613C324.684 64.081 324.693 64.0981 324.695 64.1178C324.693 64.1412 324.684 64.1622 324.684 64.1869C324.684 65.2892 327.434 65.2892 330.825 65.2892C334.217 65.2892 336.967 65.2892 336.967 64.1869C336.967 64.1622 336.958 64.1412 336.956 64.1178C336.957 64.0981 336.967 64.081 336.967 64.0613V58.2744Z" fill="#0097B8"/>
<path fill-rule="evenodd" clip-rule="evenodd" d="M336.967 64.1876C336.967 63.0859 334.217 63.0859 330.825 63.0859C329.679 63.0859 328.609 63.0872 327.691 63.1297V58.275C327.691 56.8072 328.886 55.6167 330.361 55.6167H327.353C325.879 55.6167 324.684 56.8072 324.684 58.275V64.0619C324.684 64.0816 324.694 64.0981 324.695 64.1184C324.693 64.1419 324.684 64.1628 324.684 64.1876C324.684 64.5322 324.952 64.7689 325.425 64.9313C325.442 64.9377 325.463 64.9415 325.481 64.9472C326.048 65.1306 326.885 65.2162 327.898 65.2562C328.072 65.2619 328.251 65.2676 328.435 65.2721C329.17 65.2892 329.977 65.2892 330.825 65.2892C334.218 65.2892 336.967 65.2892 336.967 64.1876Z" fill="#00547A"/>
<path fill-rule="evenodd" clip-rule="evenodd" d="M338.737 82.7042L337.343 76.7853C336.453 73.0076 335.999 69.141 335.982 65.2617C335.993 65.2204 336.003 65.1798 336.003 65.1348C336.003 65.1284 336.001 65.1227 336 65.1164C336.327 64.9704 336.514 64.7724 336.514 64.5002C336.514 63.4829 333.975 63.4829 330.843 63.4829C327.712 63.4829 325.173 63.4829 325.173 64.5002C325.173 64.7673 325.352 64.9634 325.668 65.1087C325.663 69.0401 325.207 72.9581 324.305 76.7853L322.911 82.7042C322.005 86.5511 321.547 89.2209 321.547 93.1719V120.578C321.547 123.362 323.814 125.62 326.611 125.62H335.037C337.834 125.62 340.101 123.362 340.101 120.578V93.1719C340.101 89.2209 339.643 86.5511 338.737 82.7042Z" fill="#E39C69"/>
<path fill-rule="evenodd" clip-rule="evenodd" d="M340.101 116.415V115.866H326.273V94.4404C326.273 90.4888 326.73 86.5505 327.636 82.7042L329.03 76.7853C329.898 73.104 330.354 69.3396 330.392 65.5599C330.395 65.2287 330.587 64.9317 330.89 64.7959C331.393 64.57 332.236 64.2692 333.21 64.2343C332.5 64.2095 331.697 64.2089 330.843 64.2089H330.511C331.087 63.4835 333.642 63.4829 330.843 63.4829C327.712 63.4829 325.173 63.4829 325.173 64.5002C325.173 64.7673 325.353 64.9628 325.668 65.1081C325.663 69.0401 325.206 72.9574 324.305 76.7853L322.911 82.7042C322.004 86.5505 321.548 90.4888 321.548 94.4404V115.866H321.547V116.415H321.548V120.578C321.548 123.362 323.814 125.62 326.611 125.62H331.337C328.54 125.62 326.273 123.362 326.273 120.578V116.415H340.101Z" fill="#CE643A"/>
<path fill-rule="evenodd" clip-rule="evenodd" d="M295.09 76.4947C297.072 78.0977 297.974 80.6768 298.035 83.1672C298.055 83.4813 298.019 83.7909 298.013 84.1044L297.991 84.5736L297.924 85.0352C297.877 85.3416 297.839 85.6532 297.782 85.9577L297.557 86.8578L297.443 87.3079L297.289 87.7426L296.979 88.6109L296.452 90.1162C295.929 92.1303 295.9 94.2709 296.407 96.3808C296.888 98.4901 297.825 100.571 299.008 102.501L299.019 102.521C299.106 102.661 299.06 102.843 298.917 102.928C298.8 102.997 298.658 102.98 298.561 102.897C297.633 102.097 296.883 101.166 296.203 100.165C295.542 99.1566 294.952 98.0783 294.56 96.912C294.446 96.6259 294.355 96.3316 294.278 96.0322C294.2 95.7335 294.103 95.4379 294.041 95.1334C293.944 94.5199 293.818 93.9064 293.808 93.2775C293.687 92.0225 293.883 90.7565 294.156 89.5238C294.336 88.9326 294.548 88.2917 294.739 87.7497C294.913 87.2402 295.147 86.7423 295.279 86.2252C295.617 85.2031 295.806 84.1599 295.923 83.1098C296.129 81.0229 295.771 78.8248 294.665 76.9135L294.639 76.8682C294.557 76.7264 294.607 76.5464 294.752 76.466C294.862 76.404 294.997 76.42 295.09 76.4947Z" fill="#DFF0FF"/>
<path fill-rule="evenodd" clip-rule="evenodd" d="M291.4 98.8158C290.393 98.2061 289.656 97.3328 289.07 96.3541C288.498 95.3703 288.123 94.2544 288.018 93.1104C287.934 92.5448 287.942 91.9645 287.984 91.3976C288.017 91.1135 288.044 90.83 288.085 90.5491C288.133 90.2689 288.222 89.9976 288.289 89.7243C288.408 89.1715 288.67 88.6646 288.892 88.1577C289.139 87.6604 289.465 87.2033 289.78 86.7583C289.883 86.6128 290.087 86.577 290.235 86.6779C290.341 86.7507 290.39 86.8726 290.371 86.9901L290.364 87.0379C290.283 87.5633 290.136 88.0492 290.051 88.5439C289.987 89.0438 289.868 89.5213 289.853 90.0116C289.736 90.9788 289.805 91.9319 289.924 92.8665C290.071 93.8005 290.319 94.7153 290.656 95.6225C290.973 96.5367 291.413 97.4394 291.856 98.3606L291.874 98.3989C291.953 98.5623 291.882 98.7557 291.716 98.833C291.611 98.8822 291.493 98.8707 291.4 98.8158Z" fill="#DFF0FF"/>
<path fill-rule="evenodd" clip-rule="evenodd" d="M299.314 93.5935C300.292 92.8587 301.131 91.903 301.685 90.8682C302.259 89.8352 302.558 88.704 302.642 87.5581C302.706 86.4096 302.589 85.2388 302.282 84.0896C301.991 82.9393 301.581 81.7889 301.045 80.7151C300.537 79.6221 299.874 78.5994 299.176 77.4975C298.499 76.3944 297.759 75.1731 297.364 73.8089C296.934 72.458 296.836 71.0516 296.905 69.7123C296.999 68.3678 297.229 67.0642 297.608 65.8059C297.656 65.6476 297.825 65.5569 297.987 65.6035C298.118 65.6418 298.203 65.7599 298.204 65.8883C298.226 68.4534 298.323 71.0012 299.255 73.1513C299.724 74.2238 300.358 75.2204 301.112 76.2654C301.846 77.3156 302.604 78.4634 303.218 79.6981C303.805 80.95 304.255 82.246 304.538 83.6051C304.79 84.9643 304.9 86.3968 304.635 87.8039C304.399 89.2096 303.803 90.5668 302.923 91.677C302.021 92.7751 300.907 93.6509 299.572 94.1285C299.415 94.184 299.242 94.1048 299.186 93.9516C299.139 93.8271 299.184 93.6918 299.285 93.6152L299.314 93.5935Z" fill="#DFF0FF"/>
<path fill-rule="evenodd" clip-rule="evenodd" d="M308.589 103.118C308.589 101.334 306.151 100.739 302.521 100.541C300.707 100.442 297.127 100.442 297.514 100.443C297.033 101.172 297.116 101.779 297.283 102.174C303.236 102.176 307.949 102.253 307.949 104.192C307.949 104.259 307.928 104.321 307.917 104.384V104.448C308.345 104.101 308.589 103.668 308.589 103.118Z" fill="#FFEACF"/>
<path fill-rule="evenodd" clip-rule="evenodd" d="M284.192 103.68C284.176 103.635 284.157 103.591 284.145 103.544C284.157 103.591 284.176 103.635 284.192 103.68Z" fill="#ACEDFB"/>
<path fill-rule="evenodd" clip-rule="evenodd" d="M284.396 104.069C284.361 104.021 284.331 103.972 284.301 103.921C284.33 103.972 284.361 104.021 284.396 104.069Z" fill="#ACEDFB"/>
<path fill-rule="evenodd" clip-rule="evenodd" d="M285.117 104.152H285.145C285.214 102.175 290.288 102.173 296.543 102.173C296.793 102.173 297.036 102.173 297.282 102.173C297.115 101.779 297.032 101.172 297.513 100.443C297.126 100.442 296.734 100.442 296.338 100.442C289.572 100.442 284.088 100.442 284.088 103.118C284.088 103.269 284.111 103.41 284.145 103.545C284.157 103.591 284.176 103.635 284.192 103.68C284.222 103.763 284.257 103.844 284.3 103.921C284.33 103.972 284.36 104.021 284.395 104.069C284.414 104.097 284.43 104.126 284.452 104.152H285.117Z" fill="#F7D4AD"/>
<path fill-rule="evenodd" clip-rule="evenodd" d="M281.187 113.335V107.832C281.187 107.352 281.583 106.963 282.071 106.963H285.118V116.24H284.145C282.514 116.24 281.187 114.937 281.187 113.335ZM307.948 104.191C307.948 102.173 302.842 102.173 296.543 102.173C290.288 102.173 285.214 102.175 285.145 104.152H285.118H282.071C280.006 104.152 278.326 105.803 278.326 107.832V113.335C278.326 116.486 280.936 119.05 284.145 119.05H285.211C285.717 122.122 288.421 124.469 291.691 124.469H301.344C304.974 124.469 307.917 121.579 307.917 118.013V104.384C307.928 104.32 307.948 104.259 307.948 104.191Z" fill="#E39C69"/>
<path fill-rule="evenodd" clip-rule="evenodd" d="M298.025 124.347C296.297 123.352 295.228 121.54 295.211 119.572L295.077 104.176C295.069 103.3 295.649 102.523 296.501 102.265L296.807 102.173H296.543C290.288 102.173 285.214 102.175 285.145 104.152H285.118V104.153H284.435L282.658 106.963H285.118V116.241H284.145C283.124 116.241 282.222 115.729 281.691 114.954C281.608 115.136 281.511 115.301 281.398 115.442C281.308 115.289 281.227 115.131 281.162 114.968C281.041 114.692 280.961 114.401 280.919 114.106C280.871 113.801 280.885 113.541 280.884 113.168C280.897 111.767 280.894 110.367 280.836 108.967L280.816 108.442L280.806 108.184C280.808 108.119 280.797 108.053 280.805 107.987C280.82 107.725 280.897 107.462 281.037 107.225C281.311 106.743 281.833 106.388 282.456 106.292L282.465 106.291C282.588 106.272 282.689 106.175 282.705 106.047C282.725 105.893 282.614 105.751 282.456 105.732C281.648 105.632 280.767 105.994 280.229 106.67C279.956 107.004 279.779 107.417 279.698 107.848C279.674 107.955 279.671 108.065 279.659 108.174L279.647 108.442L279.627 108.967C279.569 110.367 279.566 111.767 279.58 113.168C279.577 113.493 279.595 113.937 279.681 114.322C279.761 114.717 279.892 115.101 280.074 115.459C280.18 115.661 280.304 115.852 280.437 116.036C279.878 116.218 279.435 116.227 279.09 116.155C280.093 117.881 281.981 119.051 284.145 119.051H285.211C285.717 122.122 288.421 124.469 291.691 124.469H298.238L298.025 124.347Z" fill="#CE643A"/>
<path fill-rule="evenodd" clip-rule="evenodd" d="M0.0306058 317.555C-0.1589 318.651 0.5499 319.715 1.65063 319.952C2.78089 320.196 3.89516 319.48 4.13943 318.353L43.2704 137.861H31.3488L0.0306058 317.555Z" fill="#00547A"/>
<path fill-rule="evenodd" clip-rule="evenodd" d="M271.728 317.555C271.538 318.651 272.248 319.715 273.348 319.952C274.478 320.196 275.592 319.48 275.837 318.353L314.968 137.861H303.047L271.728 317.555Z" fill="#00547A"/>
<path fill-rule="evenodd" clip-rule="evenodd" d="M19.1191 137.861L95.901 143.899H309.087L386.415 137.861H109.138H19.1191Z" fill="#002F33"/>
<path fill-rule="evenodd" clip-rule="evenodd" d="M303.047 137.861L271.728 318.161C271.608 318.853 271.847 319.532 272.313 320C272.876 319.876 273.341 319.43 273.459 318.828L307.423 145.957C307.887 143.597 309.987 141.918 312.39 141.985L314.067 142.031L314.968 137.861H303.047Z" fill="#002F33"/>
<path fill-rule="evenodd" clip-rule="evenodd" d="M31.3488 137.861L0.0305712 318.161C-0.0887927 318.853 0.148704 319.532 0.615085 320C1.17806 319.876 1.64321 319.43 1.76196 318.828L35.7253 145.957C36.1892 143.597 38.2892 141.918 40.6924 141.985L42.3691 142.031L43.2704 137.861H31.3488Z" fill="#002F33"/>
<path fill-rule="evenodd" clip-rule="evenodd" d="M111.639 124.78H4.08295C2.38316 124.78 1.00586 126.199 1.00586 127.951V129.503C1.00586 130.881 1.86437 132.042 3.05581 132.48L11.5221 136.443C13.5198 137.378 15.6891 137.862 17.8837 137.862H19.205H31.7724H43.6968H89.8094H101.733H109.069C111.98 137.862 114.375 135.591 114.681 132.674H114.717V127.951C114.717 126.199 113.339 124.78 111.639 124.78Z" fill="#00547A"/>
<path fill-rule="evenodd" clip-rule="evenodd" d="M132.8 317.554L101.482 137.861H89.5605L128.691 318.353C128.928 319.44 129.986 320.16 131.095 319.969C132.235 319.771 132.998 318.691 132.8 317.554Z" fill="#0097B8"/>
<path fill-rule="evenodd" clip-rule="evenodd" d="M362.264 137.861L401.394 318.353C401.631 319.44 402.689 320.161 403.799 319.969C404.937 319.771 405.701 318.69 405.503 317.555L374.184 137.861H362.264Z" fill="#0097B8"/>
<path fill-rule="evenodd" clip-rule="evenodd" d="M101.36 142.038L102.204 142.059L101.472 137.861H89.5605L128.66 318.137C128.731 318.463 128.881 318.749 129.077 318.993C129.605 318.681 129.909 318.066 129.784 317.43L96.4093 147.881C95.8037 144.804 98.2137 141.958 101.36 142.038Z" fill="#00547A"/>
<path fill-rule="evenodd" clip-rule="evenodd" d="M402.487 317.43L369.112 147.881C368.507 144.804 370.917 141.958 374.063 142.038L374.907 142.059L374.175 137.861H362.264L401.363 318.137C401.434 318.463 401.584 318.749 401.78 318.993C402.308 318.681 402.613 318.066 402.487 317.43Z" fill="#00547A"/>
<path fill-rule="evenodd" clip-rule="evenodd" d="M388.604 137.862C390.808 137.862 392.986 137.378 394.993 136.443L403.533 132.462C403.637 132.422 403.736 132.373 403.836 132.321L403.918 132.282C403.926 132.278 403.928 132.271 403.935 132.266C404.885 131.725 405.535 130.697 405.535 129.503V127.951C405.535 126.199 404.152 124.78 402.445 124.78H111.261C112.968 124.78 114.351 126.199 114.351 127.951V132.674H114.316C114.008 135.591 111.603 137.862 108.68 137.862H361.717H373.691H386.639H388.604Z" fill="#0097B8"/>
<path fill-rule="evenodd" clip-rule="evenodd" d="M202.593 45.2749C204.804 43.9618 206.289 41.5338 206.289 38.7538C206.289 34.5791 202.942 31.1948 198.812 31.1948C195.945 31.1948 193.456 32.8269 192.201 35.2212C190.947 32.8269 188.458 31.1948 185.591 31.1948C181.461 31.1948 178.113 34.5791 178.113 38.7538C178.113 41.5338 179.599 43.9618 181.81 45.2749C179.599 46.588 178.113 49.016 178.113 51.796C178.113 55.9706 181.461 59.3549 185.591 59.3549C188.458 59.3549 190.947 57.7229 192.201 55.3286C193.456 57.7229 195.945 59.3549 198.812 59.3549C202.942 59.3549 206.289 55.9706 206.289 51.796C206.289 49.016 204.804 46.588 202.593 45.2749Z" fill="#00ABD1"/>
</svg>
